<svg width="32" height="32" viewBox="0 0 32 32" fill="none" xmlns="http://www.w3.org/2000/svg">
<g clip-path="url(#clip0_735_4955)">
<rect width="32" height="32" fill="#0B0A09"/>
<path d="M17.792 23.7255V8.41553H21.5225C22.8738 8.41553 24.0454 8.71741 25.0373 9.32119C26.0436 9.91059 26.8127 10.7803 27.3446 11.9304C27.8908 13.066 28.164 14.4533 28.164 16.0921C28.164 17.7309 27.8908 19.1181 27.3446 20.2538C26.8127 21.3895 26.0436 22.252 25.0373 22.8414C24.0454 23.4308 22.8738 23.7255 21.5225 23.7255H17.792ZM20.0561 21.5907H21.4578C22.8522 21.5907 23.9232 21.1379 24.6707 20.2322C25.4326 19.3122 25.8136 17.9321 25.8136 16.0921C25.8136 14.252 25.4326 12.872 24.6707 11.9519C23.9232 11.0175 22.8522 10.5503 21.4578 10.5503H20.0561V21.5907Z" fill="white"/>
<path d="M9.73585 24C8.62893 24 7.65858 23.7772 6.8248 23.3315C6.00539 22.8859 5.3513 22.2677 4.86253 21.4771C4.37376 20.6721 4.08625 19.7376 4 18.6739L6.32884 18.5229C6.42947 19.2561 6.63073 19.8742 6.93261 20.3774C7.2345 20.8805 7.62983 21.2615 8.1186 21.5202C8.60737 21.7646 9.1752 21.8868 9.8221 21.8868C10.4546 21.8868 10.9865 21.8077 11.4178 21.6496C11.8491 21.4771 12.1797 21.2327 12.4097 20.9164C12.6397 20.6002 12.7547 20.2192 12.7547 19.7736C12.7547 19.3136 12.6469 18.9111 12.4313 18.566C12.2156 18.221 11.8275 17.9048 11.2668 17.6173C10.7062 17.3297 9.88679 17.035 8.80863 16.7332C7.75921 16.4456 6.90386 16.1222 6.24259 15.7628C5.58131 15.4034 5.09973 14.9578 4.79784 14.4259C4.49596 13.894 4.34501 13.2327 4.34501 12.442C4.34501 11.5651 4.54627 10.796 4.94879 10.1348C5.36568 9.45912 5.95508 8.93441 6.71698 8.56065C7.49326 8.18688 8.42048 8 9.49865 8C10.5624 8 11.4681 8.20845 12.2156 8.62534C12.9775 9.04223 13.5741 9.62444 14.0054 10.372C14.451 11.1051 14.7242 11.9677 14.8248 12.9596L12.496 13.0889C12.4241 12.4996 12.2588 11.982 12 11.5364C11.7556 11.0907 11.4178 10.7457 10.9865 10.5013C10.5553 10.2426 10.0377 10.1132 9.43396 10.1132C8.5858 10.1132 7.91015 10.3217 7.40701 10.7385C6.91824 11.1411 6.67385 11.673 6.67385 12.3342C6.67385 12.7799 6.77448 13.1465 6.97574 13.434C7.177 13.7215 7.5292 13.9802 8.03234 14.2102C8.53549 14.4403 9.23989 14.6774 10.1456 14.9218C11.3675 15.2525 12.3378 15.6334 13.0566 16.0647C13.7754 16.496 14.2929 17.0135 14.6092 17.6173C14.9254 18.221 15.0836 18.9398 15.0836 19.7736C15.0836 20.6074 14.8607 21.3477 14.4151 21.9946C13.9695 22.6271 13.3441 23.1231 12.5391 23.4825C11.7484 23.8275 10.814 24 9.73585 24Z" fill="white"/>
</g>
<defs>
<clipPath id="clip0_735_4955">
<rect width="32" height="32" rx="12" fill="white"/>
</clipPath>
</defs>
</svg>
