<svg width="32" height="32" viewBox="0 0 32 32" fill="none" xmlns="http://www.w3.org/2000/svg">
<g clip-path="url(#clip0_735_4955)">
<rect width="32" height="32" fill="#0B0A09"/>
<path d="M17.3647 21.794V10.3115H20.1626C21.1761 10.3115 22.0548 10.5379 22.7987 10.9908C23.5534 11.4328 24.1302 12.0851 24.5292 12.9476C24.9389 13.7994 25.1437 14.8398 25.1437 16.0689C25.1437 17.298 24.9389 18.3385 24.5292 19.1902C24.1302 20.042 23.5534 20.6889 22.7987 21.1309C22.0548 21.573 21.1761 21.794 20.1626 21.794H17.3647ZM19.0629 20.1929H20.1141C21.1599 20.1929 21.9631 19.8533 22.5238 19.1741C23.0952 18.484 23.3809 17.449 23.3809 16.0689C23.3809 14.6889 23.0952 13.6538 22.5238 12.9638C21.9631 12.263 21.1599 11.9126 20.1141 11.9126H19.0629V20.1929Z" fill="white"/>
<path d="M11.3224 22C10.4922 22 9.76444 21.8329 9.13911 21.4987C8.52455 21.1644 8.03399 20.7008 7.66741 20.1078C7.30083 19.504 7.0852 18.8032 7.02051 18.0054L8.76714 17.8922C8.84261 18.442 8.99355 18.9057 9.21997 19.283C9.44638 19.6604 9.74288 19.9461 10.1095 20.1402C10.476 20.3235 10.9019 20.4151 11.3871 20.4151C11.8615 20.4151 12.2604 20.3558 12.5839 20.2372C12.9073 20.1078 13.1553 19.9245 13.3278 19.6873C13.5003 19.4501 13.5865 19.1644 13.5865 18.8302C13.5865 18.4852 13.5057 18.1833 13.344 17.9245C13.1822 17.6658 12.8911 17.4286 12.4706 17.2129C12.0502 16.9973 11.4356 16.7763 10.627 16.5499C9.83992 16.3342 9.19841 16.0916 8.70245 15.8221C8.20649 15.5526 7.84531 15.2183 7.61889 14.8194C7.39248 14.4205 7.27927 13.9245 7.27927 13.3315C7.27927 12.6739 7.43021 12.097 7.7321 11.6011C8.04477 11.0943 8.48682 10.7008 9.05824 10.4205C9.64045 10.1402 10.3359 10 11.1445 10C11.9423 10 12.6216 10.1563 13.1822 10.469C13.7537 10.7817 14.2011 11.2183 14.5246 11.779C14.8588 12.3288 15.0636 12.9757 15.1391 13.7197L13.3925 13.8167C13.3386 13.3747 13.2146 12.9865 13.0205 12.6523C12.8372 12.3181 12.5839 12.0593 12.2604 11.876C11.937 11.6819 11.5488 11.5849 11.096 11.5849C10.4599 11.5849 9.95312 11.7412 9.57576 12.0539C9.20919 12.3558 9.0259 12.7547 9.0259 13.2507C9.0259 13.5849 9.10137 13.8598 9.25231 14.0755C9.40326 14.2911 9.66741 14.4852 10.0448 14.6577C10.4221 14.8302 10.9504 15.0081 11.6297 15.1914C12.5461 15.4394 13.2739 15.7251 13.813 16.0485C14.352 16.372 14.7402 16.7601 14.9774 17.2129C15.2146 17.6658 15.3332 18.2049 15.3332 18.8302C15.3332 19.4555 15.1661 20.0108 14.8318 20.496C14.4976 20.9704 14.0286 21.3423 13.4248 21.6119C12.8318 21.8706 12.131 22 11.3224 22Z" fill="white"/>
</g>
<defs>
<clipPath id="clip0_735_4955">
<rect width="32" height="32" rx="12" fill="white"/>
</clipPath>
</defs>
</svg>
