<svg width="671" height="329" viewBox="0 0 671 329" fill="none" xmlns="http://www.w3.org/2000/svg">
<g clip-path="url(#clip0_685_1664)">
<path d="M299.015 -20.7312H368.614C379.665 -20.7312 388.624 -11.7725 388.624 -0.721405V68.8772C388.624 79.9283 379.665 88.887 368.614 88.887H299.015C287.964 88.887 279.006 79.9283 279.006 68.8772V-0.721405C279.006 -11.7725 287.964 -20.7312 299.015 -20.7312Z" stroke="#262626" stroke-width="1.73998"/>
<g opacity="0.5" clip-path="url(#clip1_685_1664)">
<path d="M345.361 35.8662C345.361 36.1583 345.248 36.4383 345.046 36.6447C344.845 36.8511 344.572 36.9672 344.287 36.9672C344.003 36.9672 343.73 36.8511 343.528 36.6447C343.327 36.4383 343.214 36.1583 343.214 35.8662V26.0315C343.214 25.7395 343.327 25.4595 343.528 25.2531C343.73 25.0466 344.003 24.9306 344.287 24.9306C344.572 24.9306 344.845 25.0466 345.046 25.2531C345.248 25.4595 345.361 25.7395 345.361 26.0315V35.8662ZM344.988 42.6806C344.846 42.8262 340.854 46.2379 333.536 46.2379C326.218 46.2379 322.253 42.8444 322.085 42.6987C321.978 42.6069 321.891 42.4945 321.827 42.3679C321.763 42.2412 321.725 42.103 321.713 41.9609C321.702 41.819 321.717 41.6761 321.76 41.5403C321.802 41.4047 321.87 41.2789 321.96 41.1703C322.146 40.9505 322.408 40.8147 322.691 40.7925C322.973 40.7704 323.253 40.8637 323.468 41.0521C323.53 41.0976 327.096 44.0634 333.528 44.0634C339.959 44.0634 343.551 41.0794 343.587 41.0521C343.805 40.8653 344.085 40.7732 344.368 40.7954C344.652 40.8175 344.915 40.9519 345.103 41.1703C345.284 41.3869 345.375 41.668 345.355 41.9525C345.335 42.2369 345.206 42.5019 344.997 42.6897L344.988 42.6806ZM321.703 26.0315C321.719 25.7386 321.848 25.4641 322.06 25.2681C322.273 25.072 322.553 24.9703 322.839 24.9852C323.103 25.0006 323.353 25.1161 323.54 25.3093C323.727 25.5025 323.837 25.7598 323.85 26.0315V35.8481C323.85 36.14 323.737 36.42 323.535 36.6264C323.334 36.833 323.061 36.9489 322.776 36.9489C322.492 36.9489 322.219 36.833 322.017 36.6264C321.816 36.42 321.703 36.14 321.703 35.8481V26.0315ZM327.088 23.848C327.104 23.5551 327.232 23.2806 327.445 23.0846C327.658 22.8885 327.937 22.7868 328.223 22.8017C328.488 22.8172 328.738 22.9326 328.924 23.1258C329.111 23.319 329.221 23.5763 329.234 23.848V38.4046C329.234 38.6966 329.121 38.9766 328.92 39.183C328.719 39.3894 328.445 39.5054 328.161 39.5054C327.876 39.5054 327.603 39.3894 327.402 39.183C327.201 38.9766 327.088 38.6966 327.088 38.4046V23.848ZM332.498 23.3021C332.498 23.0101 332.612 22.7301 332.813 22.5237C333.014 22.3172 333.287 22.2013 333.572 22.2013C333.856 22.2013 334.129 22.3172 334.331 22.5237C334.532 22.7301 334.645 23.0101 334.645 23.3021V39.1324C334.645 39.4243 334.532 39.7043 334.331 39.9109C334.129 40.1173 333.856 40.2332 333.572 40.2332C333.287 40.2332 333.014 40.1173 332.813 39.9109C332.612 39.7043 332.498 39.4243 332.498 39.1324V23.3021ZM337.821 23.848C337.821 23.556 337.934 23.276 338.135 23.0696C338.336 22.8631 338.609 22.7471 338.894 22.7471C339.179 22.7471 339.452 22.8631 339.653 23.0696C339.854 23.276 339.967 23.556 339.967 23.848V38.4046C339.967 38.6966 339.854 38.9766 339.653 39.183C339.452 39.3894 339.179 39.5054 338.894 39.5054C338.609 39.5054 338.336 39.3894 338.135 39.183C337.934 38.9766 337.821 38.6966 337.821 38.4046V23.848ZM345.653 17.8434H321.455C320.927 17.8398 320.405 17.9429 319.916 18.1468C319.428 18.3507 318.984 18.6514 318.609 19.0317C318.234 19.412 317.936 19.8644 317.732 20.363C317.527 20.8616 317.421 21.3966 317.419 21.9374V46.5018C317.421 47.0425 317.527 47.5776 317.732 48.0762C317.936 48.5747 318.234 49.0272 318.609 49.4074C318.984 49.7876 319.428 50.0885 319.916 50.2923C320.405 50.4963 320.927 50.5993 321.455 50.5957H345.653C346.18 50.5993 346.702 50.4966 347.19 50.2932C347.678 50.0899 348.121 49.7899 348.496 49.4106C348.871 49.0313 349.169 48.58 349.374 48.0824C349.579 47.5849 349.686 47.0508 349.689 46.5108V21.9374C349.687 21.3974 349.581 20.8631 349.377 20.3651C349.174 19.8671 348.876 19.4151 348.502 19.035C348.129 18.6548 347.685 18.3539 347.198 18.1494C346.711 17.945 346.189 17.841 345.662 17.8434" fill="white"/>
</g>
<path d="M299.015 115.193H368.614C379.665 115.193 388.624 124.151 388.624 135.202V204.801C388.624 215.852 379.665 224.811 368.614 224.811H299.015C287.964 224.811 279.006 215.852 279.006 204.801V135.202C279.006 124.151 287.964 115.193 299.015 115.193Z" stroke="#262626" stroke-width="1.73998"/>
<rect x="269.329" y="106.545" width="128.963" height="128.963" rx="31.729" stroke="#525252" stroke-width="2.04703"/>
<path d="M356.93 175.612C356.857 175.616 342.765 176.452 341.954 183.368C341.906 183.784 341.951 184.206 342.019 184.62C342.249 186.032 343.469 187.069 344.899 187.069H348.005V192.597H340.286C340.286 189.421 337.711 186.846 334.533 186.846C331.356 186.846 328.78 189.421 328.78 192.597H320.455V187.069H322.602C324.531 187.069 326.096 185.503 326.096 183.573V183.41C326.096 182.458 325.513 181.602 324.633 181.24C315.58 177.52 310.692 174.58 310.692 170.459H356.93V175.612Z" fill="#F8F8F8"/>
<path d="M336.254 154.883C337.455 155.148 338.579 155.621 339.584 156.262L343.66 152.667L346.347 155.346L342.749 159.422C343.392 160.428 343.866 161.552 344.132 162.754L349.554 163.091V166.886L349.088 166.916H339.893C339.923 166.682 339.94 166.444 339.94 166.203C339.94 163.206 337.511 160.777 334.515 160.777C331.519 160.777 329.09 163.207 329.09 166.203C329.09 166.444 329.107 166.682 329.138 166.916H318.943L318.479 166.886V163.091L323.905 162.754C324.171 161.552 324.644 160.428 325.287 159.423L321.686 155.346L324.371 152.667L328.45 156.263C329.455 155.622 330.58 155.149 331.781 154.884L332.12 149.456H335.912L336.254 154.883Z" fill="url(#paint0_linear_685_1664)"/>
<path d="M336.254 154.883C337.455 155.148 338.579 155.621 339.584 156.262L343.66 152.667L346.347 155.346L342.749 159.422C343.392 160.428 343.866 161.552 344.132 162.754L349.554 163.091V166.886L349.088 166.916H339.893C339.923 166.682 339.94 166.444 339.94 166.203C339.94 163.206 337.511 160.777 334.515 160.777C331.519 160.777 329.09 163.207 329.09 166.203C329.09 166.444 329.107 166.682 329.138 166.916H318.943L318.479 166.886V163.091L323.905 162.754C324.171 161.552 324.644 160.428 325.287 159.423L321.686 155.346L324.371 152.667L328.45 156.263C329.455 155.622 330.58 155.149 331.781 154.884L332.12 149.456H335.912L336.254 154.883Z" fill="#F8F8F8"/>
<g filter="url(#filter0_d_685_1664)">
<rect x="279.564" y="115.346" width="109.312" height="109.312" rx="19.8562" stroke="url(#paint1_linear_685_1664)" stroke-width="2.04703" shape-rendering="crispEdges"/>
</g>
<path d="M434.121 -53.484H503.72C514.771 -53.484 523.73 -44.5253 523.73 -33.4742V36.1244C523.73 47.1755 514.771 56.1342 503.72 56.1342H434.121C423.07 56.1342 414.112 47.1755 414.112 36.1244V-33.4742C414.112 -44.5253 423.07 -53.484 434.121 -53.484Z" stroke="#262626" stroke-width="1.73998"/>
<g opacity="0.5" clip-path="url(#clip2_685_1664)">
<path fill-rule="evenodd" clip-rule="evenodd" d="M456.639 13.6074L481.203 8.44601V-10.957L456.639 -5.89119V13.6074Z" fill="white"/>
</g>
<path d="M434.121 82.4398H503.72C514.771 82.4398 523.73 91.3985 523.73 102.45V172.048C523.73 183.099 514.771 192.058 503.72 192.058H434.121C423.07 192.058 414.112 183.099 414.112 172.048V102.45C414.112 91.3985 423.07 82.4398 434.121 82.4398Z" stroke="#262626" stroke-width="1.73998"/>
<g opacity="0.5" clip-path="url(#clip3_685_1664)">
<path d="M471.69 153.409C470.83 154.491 469.088 153.898 469.068 152.517L468.765 132.309H482.353C484.814 132.309 486.186 135.152 484.656 137.079L471.69 153.409Z" fill="url(#paint2_linear_685_1664)"/>
<path d="M471.69 153.409C470.83 154.491 469.088 153.898 469.068 152.517L468.765 132.309H482.353C484.814 132.309 486.186 135.152 484.656 137.079L471.69 153.409Z" fill="white"/>
<path d="M466.163 120.894C467.023 119.811 468.765 120.404 468.785 121.786L468.918 141.994H455.501C453.039 141.994 451.667 139.151 453.197 137.224L466.163 120.894Z" fill="white"/>
</g>
<path d="M434.121 218.362H503.72C514.771 218.362 523.73 227.321 523.73 238.372V307.971C523.73 319.022 514.771 327.98 503.72 327.98H434.121C423.07 327.98 414.112 319.022 414.112 307.971V238.372C414.112 227.321 423.07 218.362 434.121 218.362Z" stroke="#262626" stroke-width="1.73998"/>
<g opacity="0.5" clip-path="url(#clip4_685_1664)">
<path d="M452.947 276.946C452.874 276.635 453.244 276.44 453.47 276.665L465.429 288.624C465.654 288.85 465.459 289.22 465.148 289.147C459.113 287.731 454.363 282.981 452.947 276.946ZM452.547 272.153C452.541 272.246 452.576 272.336 452.641 272.402L469.692 289.453C469.758 289.518 469.848 289.553 469.941 289.548C470.717 289.499 471.478 289.397 472.221 289.244C472.472 289.193 472.559 288.885 472.378 288.704L453.39 269.716C453.209 269.535 452.901 269.622 452.85 269.873C452.697 270.616 452.595 271.377 452.547 272.153ZM453.925 266.525C453.871 266.647 453.898 266.79 453.993 266.885L475.209 288.101C475.304 288.196 475.447 288.223 475.569 288.169C476.154 287.908 476.721 287.615 477.268 287.29C477.448 287.182 477.476 286.934 477.328 286.785L455.309 264.766C455.16 264.618 454.912 264.646 454.804 264.826C454.479 265.373 454.186 265.94 453.925 266.525ZM456.692 262.715C456.571 262.594 456.563 262.4 456.677 262.272C459.679 258.911 464.046 256.796 468.906 256.796C477.959 256.796 485.298 264.135 485.298 273.188C485.298 278.048 483.183 282.415 479.822 285.417C479.694 285.531 479.5 285.523 479.379 285.402L456.692 262.715Z" fill="white"/>
</g>
<path d="M299.015 251.115H368.614C379.665 251.115 388.624 260.074 388.624 271.125V340.724C388.624 351.775 379.665 360.733 368.614 360.733H299.015C287.964 360.733 279.006 351.775 279.006 340.724V271.125C279.006 260.074 287.964 251.115 299.015 251.115Z" stroke="#262626" stroke-width="1.73998"/>
<g opacity="0.5">
<path fill-rule="evenodd" clip-rule="evenodd" d="M333.815 289.548C324.767 289.548 317.439 296.876 317.439 305.924C317.439 313.171 322.126 319.291 328.636 321.461C329.455 321.605 329.762 321.113 329.762 320.683C329.762 320.295 329.741 319.005 329.741 317.633C325.627 318.391 324.562 316.63 324.235 315.709C324.051 315.238 323.252 313.785 322.556 313.396C321.983 313.089 321.164 312.332 322.536 312.311C323.825 312.291 324.747 313.498 325.054 313.99C326.527 316.467 328.882 315.771 329.823 315.341C329.966 314.276 330.396 313.56 330.867 313.15C327.223 312.741 323.416 311.329 323.416 305.065C323.416 303.284 324.051 301.81 325.095 300.663C324.931 300.254 324.358 298.576 325.258 296.324C325.258 296.324 326.63 295.894 329.762 298.002C331.072 297.634 332.464 297.45 333.856 297.45C335.248 297.45 336.64 297.634 337.95 298.002C341.082 295.873 342.453 296.324 342.453 296.324C343.354 298.576 342.781 300.254 342.617 300.663C343.661 301.81 344.296 303.263 344.296 305.065C344.296 311.349 340.468 312.741 336.824 313.15C337.418 313.662 337.929 314.645 337.929 316.18C337.929 318.37 337.909 320.131 337.909 320.683C337.909 321.113 338.216 321.625 339.035 321.461C345.503 319.291 350.191 313.15 350.191 305.924C350.191 296.876 342.863 289.548 333.815 289.548Z" fill="white"/>
</g>
<path d="M163.09 12.0214H232.689C243.74 12.0214 252.698 20.98 252.698 32.0311V101.63C252.698 112.681 243.74 121.64 232.689 121.64H163.09C152.039 121.64 143.08 112.681 143.08 101.63V32.0311C143.08 20.98 152.039 12.0214 163.09 12.0214Z" stroke="#262626" stroke-width="1.73998"/>
<g style="mix-blend-mode:luminosity" opacity="0.5">
<path d="M183.484 51.8667L201.607 50.5281C203.833 50.3372 204.405 50.4659 205.805 51.4835L211.59 55.5589C212.544 56.2598 212.862 56.4508 212.862 57.2139V79.5652C212.862 80.966 212.353 81.7947 210.572 81.9211L189.527 83.1958C188.19 83.259 187.554 83.0681 186.854 82.1762L182.594 76.6365C181.83 75.6169 181.513 74.8538 181.513 73.9616V54.0939C181.513 52.9485 182.022 51.9935 183.484 51.8667Z" fill="white"/>
<path fill-rule="evenodd" clip-rule="evenodd" d="M201.607 50.5284L183.484 51.867C182.022 51.9935 181.513 52.9489 181.513 54.0939V73.9616C181.513 74.8534 181.83 75.6166 182.594 76.6365L186.854 82.1759C187.554 83.0678 188.19 83.259 189.527 83.1955L210.573 81.9214C212.352 81.7947 212.862 80.966 212.862 79.5655V57.2142C212.862 56.4904 212.576 56.2818 211.734 55.664L205.805 51.4835C204.405 50.4659 203.833 50.3372 201.607 50.5281V50.5284ZM190.003 56.8484C188.284 56.964 187.894 56.9902 186.918 56.1966L184.437 54.2229C184.185 53.9675 184.312 53.6488 184.947 53.5852L202.369 52.3121C203.832 52.1844 204.594 52.6944 205.166 53.1398L208.154 55.3047C208.282 55.3693 208.6 55.7502 208.217 55.7502L190.225 56.8333L190.003 56.8484ZM187.999 79.3746V60.4001C187.999 59.5714 188.254 59.1892 189.015 59.125L209.68 57.9151C210.381 57.8519 210.698 58.2973 210.698 59.1247V77.9728C210.698 78.8014 210.57 79.5023 209.426 79.5655L189.651 80.7119C188.507 80.7751 187.999 80.3942 187.999 79.3746H187.999ZM207.52 61.4174C207.646 61.9905 207.52 62.5637 206.947 62.6292L205.993 62.8182V76.8274C205.166 77.2729 204.404 77.5273 203.767 77.5273C202.75 77.5273 202.495 77.2087 201.733 76.2543L195.5 66.4481V75.9356L197.472 76.382C197.472 76.382 197.472 77.5283 195.881 77.5283L191.496 77.7828C191.368 77.5273 191.496 76.891 191.94 76.7642L193.086 76.4465V63.9023L191.496 63.7736C191.368 63.2004 191.686 62.3727 192.577 62.3086L197.283 61.9918L203.768 71.9247V63.1372L202.115 62.9472C201.987 62.2453 202.495 61.7354 203.131 61.6732L207.52 61.4174Z" fill="black"/>
</g>
<path d="M163.09 147.945H232.689C243.74 147.945 252.698 156.904 252.698 167.955V237.554C252.698 248.605 243.74 257.563 232.689 257.563H163.09C152.039 257.563 143.08 248.605 143.08 237.554V167.955C143.08 156.904 152.039 147.945 163.09 147.945Z" stroke="#262626" stroke-width="1.73998"/>
<g opacity="0.5">
<path d="M208.174 203.55H212.67C213.552 203.55 214.266 204.264 214.266 205.146V207.798C214.266 208.68 213.552 209.394 212.67 209.394H208.749C208.325 209.394 207.919 209.562 207.62 209.862L200.892 216.589C200.592 216.889 200.186 217.057 199.762 217.057H196.528C195.663 217.057 194.954 216.367 194.932 215.502L194.862 212.795C194.839 211.897 195.56 211.156 196.458 211.156H199.242C199.666 211.156 200.072 210.988 200.371 210.688L207.043 204.017C207.342 203.717 207.748 203.548 208.172 203.548L208.174 203.55Z" fill="white"/>
<path d="M194.826 188.452H199.321C200.203 188.452 200.917 189.166 200.917 190.048V192.7C200.917 193.582 200.203 194.296 199.321 194.296H195.4C194.977 194.296 194.571 194.464 194.271 194.764L187.543 201.492C187.244 201.792 186.838 201.96 186.414 201.96H183.18C182.315 201.96 181.606 201.27 181.584 200.405L181.514 197.698C181.49 196.8 182.211 196.061 183.11 196.061H185.894C186.318 196.061 186.723 195.892 187.023 195.593L193.695 188.921C193.994 188.621 194.4 188.453 194.824 188.453L194.826 188.452Z" fill="white"/>
<path d="M208.169 191.869H212.665C213.547 191.869 214.261 192.583 214.261 193.465V196.117C214.261 196.999 213.547 197.713 212.665 197.713H208.744C208.32 197.713 207.914 197.882 207.615 198.181L200.887 204.909C200.587 205.209 200.181 205.377 199.757 205.377H195.828C195.416 205.377 195.02 205.536 194.723 205.821L187.17 213.06C186.872 213.345 186.476 213.503 186.065 213.503H183.312C182.43 213.503 181.716 212.788 181.716 211.907V209.182C181.716 208.3 182.43 207.586 183.312 207.586H186.045C186.469 207.586 186.875 207.417 187.174 207.118L194.347 199.945C194.646 199.645 195.052 199.477 195.476 199.477H199.237C199.661 199.477 200.067 199.308 200.366 199.008L207.038 192.337C207.338 192.037 207.743 191.869 208.167 191.869H208.169Z" fill="white"/>
</g>
<path d="M163.09 283.868H232.689C243.74 283.868 252.698 292.826 252.698 303.877V373.476C252.698 384.527 243.74 393.486 232.689 393.486H163.09C152.039 393.486 143.08 384.527 143.08 373.476V303.877C143.08 292.826 152.039 283.868 163.09 283.868Z" stroke="#262626" stroke-width="1.73998"/>
<g opacity="0.5">
<path fill-rule="evenodd" clip-rule="evenodd" d="M197.889 325.03L214.266 353.416H181.513L197.889 325.03Z" fill="white"/>
</g>
</g>
<g filter="url(#filter1_n_685_1664)">
<rect width="671" height="329" fill="url(#paint3_radial_685_1664)"/>
</g>
<defs>
<filter id="filter0_d_685_1664" x="237.6" y="81.57" width="193.24" height="193.24" filterUnits="userSpaceOnUse" color-interpolation-filters="sRGB">
<feFlood flood-opacity="0" result="BackgroundImageFix"/>
<feColorMatrix in="SourceAlpha" type="matrix" values="0 0 0 0 0 0 0 0 0 0 0 0 0 0 0 0 0 0 127 0" result="hardAlpha"/>
<feOffset dy="8.18814"/>
<feGaussianBlur stdDeviation="20.4703"/>
<feComposite in2="hardAlpha" operator="out"/>
<feColorMatrix type="matrix" values="0 0 0 0 1 0 0 0 0 1 0 0 0 0 1 0 0 0 0.05 0"/>
<feBlend mode="normal" in2="BackgroundImageFix" result="effect1_dropShadow_685_1664"/>
<feBlend mode="normal" in="SourceGraphic" in2="effect1_dropShadow_685_1664" result="shape"/>
</filter>
<filter id="filter1_n_685_1664" x="0" y="0" width="671" height="329" filterUnits="userSpaceOnUse" color-interpolation-filters="sRGB">
<feFlood flood-opacity="0" result="BackgroundImageFix"/>
<feBlend mode="normal" in="SourceGraphic" in2="BackgroundImageFix" result="shape"/>
<feTurbulence type="fractalNoise" baseFrequency="3.3333332538604736 3.3333332538604736" stitchTiles="stitch" numOctaves="3" result="noise" seed="4316" />
<feColorMatrix in="noise" type="luminanceToAlpha" result="alphaNoise" />
<feComponentTransfer in="alphaNoise" result="coloredNoise1">
<feFuncA type="discrete" tableValues="1 1 1 1 1 1 1 1 1 1 1 1 1 1 1 1 1 1 1 1 1 1 1 1 1 1 1 1 1 1 1 1 1 1 1 1 1 1 1 1 1 1 1 1 1 1 1 1 1 1 1 0 0 0 0 0 0 0 0 0 0 0 0 0 0 0 0 0 0 0 0 0 0 0 0 0 0 0 0 0 0 0 0 0 0 0 0 0 0 0 0 0 0 0 0 0 0 0 0 0 "/>
</feComponentTransfer>
<feComposite operator="in" in2="shape" in="coloredNoise1" result="noise1Clipped" />
<feFlood flood-color="#0A0A0A" result="color1Flood" />
<feComposite operator="in" in2="noise1Clipped" in="color1Flood" result="color1" />
<feMerge result="effect1_noise_685_1664">
<feMergeNode in="shape" />
<feMergeNode in="color1" />
</feMerge>
</filter>
<linearGradient id="paint0_linear_685_1664" x1="334.016" y1="149.456" x2="334.016" y2="166.915" gradientUnits="userSpaceOnUse">
<stop stop-color="#FFB50B"/>
<stop offset="1" stop-color="#FC481B"/>
</linearGradient>
<linearGradient id="paint1_linear_685_1664" x1="321.528" y1="189.449" x2="386.01" y2="115.755" gradientUnits="userSpaceOnUse">
<stop offset="0.572133" stop-color="#262626"/>
<stop offset="1" stop-color="#00FFAA"/>
</linearGradient>
<linearGradient id="paint2_linear_685_1664" x1="468.765" y1="136.79" x2="480.841" y2="141.854" gradientUnits="userSpaceOnUse">
<stop stop-color="#249361"/>
<stop offset="1" stop-color="#3ECF8E"/>
</linearGradient>
<radialGradient id="paint3_radial_685_1664" cx="0" cy="0" r="1" gradientUnits="userSpaceOnUse" gradientTransform="translate(335.5 164.5) scale(365.052 178.99)">
<stop offset="0.548077" stop-color="#0A0A0A" stop-opacity="0"/>
<stop offset="1" stop-color="#0A0A0A"/>
</radialGradient>
<clipPath id="clip0_685_1664">
<rect width="564" height="323" fill="white" transform="translate(52 6)"/>
</clipPath>
<clipPath id="clip1_685_1664">
<rect width="33.0398" height="32.4702" fill="white" transform="translate(317.295 17.843)"/>
</clipPath>
<clipPath id="clip2_685_1664">
<rect width="24.5644" height="24.5644" fill="white" transform="translate(456.639 -10.957)"/>
</clipPath>
<clipPath id="clip3_685_1664">
<rect width="32.7525" height="33.9545" fill="white" transform="translate(452.545 120.272)"/>
</clipPath>
<clipPath id="clip4_685_1664">
<rect width="32.7525" height="32.7525" fill="white" transform="translate(452.545 256.795)"/>
</clipPath>
</defs>
</svg>
