<svg width="688" height="329" viewBox="0 0 688 329" fill="none" xmlns="http://www.w3.org/2000/svg">
<g clip-path="url(#clip0_712_28002)">
<path d="M287.824 -146.82H401.374C419.403 -146.82 434.019 -132.204 434.02 -114.174V-0.624512C434.019 17.4049 419.403 32.0209 401.374 32.021H287.824C269.795 32.0208 255.179 17.4048 255.179 -0.624512V-114.174C255.179 -132.204 269.795 -146.82 287.824 -146.82Z" stroke="#262626" stroke-width="2.83873"/>
<path d="M287.824 74.9365H401.374C419.403 74.9367 434.019 89.5527 434.02 107.582V221.132C434.019 239.161 419.403 253.777 401.374 253.777H287.824C269.795 253.777 255.179 239.161 255.179 221.132V107.582C255.179 89.5527 269.795 74.9367 287.824 74.9365Z" stroke="#262626" stroke-width="2.83873"/>
<rect x="239.392" y="60.828" width="210.4" height="210.4" rx="51.7651" stroke="#525252" stroke-width="3.33968"/>
<path d="M385.378 171.627C385.378 173.36 384.026 174.804 382.306 175.02C375.584 175.863 360.077 178.837 358.958 188.397C358.872 189.132 358.953 189.876 359.072 190.606C359.478 193.097 361.629 194.926 364.152 194.926H366.36C368.167 194.926 369.632 196.391 369.632 198.199V201.407C369.632 203.214 368.167 204.679 366.36 204.679H359.288C357.481 204.679 356.068 203.176 355.495 201.462C354.149 197.436 350.346 194.534 345.866 194.534C341.385 194.534 337.583 197.436 336.237 201.462C335.664 203.176 334.251 204.679 332.443 204.679H324.303C322.496 204.679 321.031 203.214 321.031 201.407V198.199C321.031 196.391 322.496 194.926 324.303 194.926H324.816C328.221 194.926 330.98 192.165 330.981 188.76V188.471C330.981 186.791 329.953 185.281 328.399 184.643C314.869 179.083 306.611 174.511 304.404 168.823C303.75 167.138 305.27 165.625 307.077 165.625H382.106C383.913 165.625 385.378 167.09 385.378 168.897V171.627Z" fill="white"/>
<path d="M346.698 127.377C348.506 127.377 349.971 128.843 349.971 130.65V137.486C349.971 138.66 350.699 139.711 351.799 140.124C352.857 140.52 354.05 140.246 354.829 139.427L359.939 134.052C361.179 132.748 363.239 132.69 364.551 133.921L367.093 136.308C368.409 137.544 368.475 139.612 367.241 140.93L361.838 146.701C361.149 147.437 360.991 148.523 361.441 149.425C361.887 150.316 362.833 150.841 363.824 150.748L372.744 149.902C374.665 149.72 376.325 151.231 376.325 153.16V155.522C376.325 157.329 374.86 158.794 373.053 158.794H316.715C314.76 158.794 313.241 157.091 313.464 155.149L313.724 152.884C313.926 151.12 315.499 149.839 317.268 149.998L325.697 150.755C326.687 150.844 327.632 150.318 328.076 149.429C328.528 148.525 328.369 147.435 327.679 146.697L322.377 141.03C321.162 139.731 321.207 137.7 322.478 136.456L324.966 134.019C326.271 132.741 328.369 132.779 329.627 134.102L334.69 139.427C335.469 140.246 336.662 140.52 337.721 140.124C338.82 139.711 339.548 138.66 339.548 137.486V130.65C339.548 128.843 341.013 127.378 342.82 127.377H346.698Z" fill="white"/>
<g filter="url(#filter0_d_712_28002)">
<rect x="256.089" y="75.1874" width="178.339" height="178.339" rx="32.3949" stroke="url(#paint0_linear_712_28002)" stroke-width="3.33968"/>
</g>
<path d="M508.246 21.5005H621.796C639.825 21.5006 654.441 36.1167 654.441 54.146V167.696C654.441 185.725 639.825 200.341 621.796 200.341H508.246C490.217 200.341 475.601 185.725 475.601 167.696V54.146C475.601 36.1167 490.217 21.5007 508.246 21.5005Z" stroke="#262626" stroke-width="2.83873"/>
<g opacity="0.5" clip-path="url(#clip1_712_28002)">
<path d="M569.538 137.286C568.137 139.052 565.294 138.084 565.261 135.83L564.767 102.862H586.935C590.95 102.862 593.189 107.499 590.692 110.644L569.538 137.286Z" fill="url(#paint1_linear_712_28002)"/>
<path d="M569.538 137.286C568.137 139.052 565.294 138.084 565.261 135.83L564.767 102.862H586.935C590.95 102.862 593.189 107.499 590.692 110.644L569.538 137.286Z" fill="white"/>
<path d="M560.521 84.2379C561.923 82.4724 564.765 83.4398 564.799 85.6939L565.015 118.662H543.125C539.109 118.662 536.87 114.025 539.367 110.88L560.521 84.2379Z" fill="white"/>
</g>
<path d="M508.246 243.255H621.796C639.825 243.255 654.441 257.871 654.441 275.9V389.45C654.441 407.48 639.825 422.096 621.796 422.096H508.246C490.217 422.096 475.601 407.48 475.601 389.45V275.9C475.601 257.871 490.217 243.255 508.246 243.255Z" stroke="#262626" stroke-width="2.83873"/>
<g opacity="0.5" clip-path="url(#clip2_712_28002)">
<path d="M538.959 338.833C538.841 338.326 539.444 338.007 539.813 338.375L559.323 357.886C559.691 358.254 559.372 358.858 558.865 358.739C549.019 356.429 541.269 348.679 538.959 338.833ZM538.306 331.014C538.296 331.165 538.353 331.313 538.46 331.42L566.278 359.238C566.385 359.345 566.533 359.402 566.684 359.392C567.95 359.314 569.193 359.147 570.405 358.898C570.813 358.814 570.955 358.312 570.66 358.017L539.681 327.038C539.386 326.743 538.884 326.885 538.8 327.293C538.551 328.506 538.385 329.748 538.306 331.014ZM540.555 321.832C540.466 322.031 540.511 322.265 540.666 322.419L575.279 357.032C575.433 357.187 575.667 357.232 575.867 357.143C576.821 356.718 577.746 356.239 578.637 355.709C578.932 355.534 578.978 355.128 578.735 354.886L542.812 318.963C542.57 318.72 542.164 318.766 541.989 319.061C541.459 319.952 540.98 320.877 540.555 321.832ZM545.069 315.616C544.871 315.419 544.859 315.101 545.045 314.893C549.943 309.41 557.066 305.958 564.996 305.958C579.766 305.958 591.74 317.932 591.74 332.702C591.74 340.632 588.288 347.756 582.805 352.653C582.597 352.839 582.28 352.827 582.082 352.629L545.069 315.616Z" fill="white"/>
</g>
<path d="M287.824 296.69H401.374C419.403 296.691 434.019 311.307 434.02 329.336V442.886C434.019 460.915 419.403 475.531 401.374 475.531H287.824C269.795 475.531 255.179 460.915 255.179 442.886V329.336C255.179 311.307 269.795 296.691 287.824 296.69Z" stroke="#262626" stroke-width="2.83873"/>
<path d="M66.0645 -93.3857H179.614C197.644 -93.3856 212.26 -78.7696 212.26 -60.7402V52.8096C212.26 70.8389 197.644 85.455 179.614 85.4551H66.0645C48.0351 85.4549 33.4191 70.8389 33.4189 52.8096V-60.7402C33.4191 -78.7695 48.0352 -93.3856 66.0645 -93.3857Z" stroke="#262626" stroke-width="2.83873"/>
<g opacity="0.5">
<path d="M97.3417 15.0317H102.885C103.597 15.0317 104.256 14.6933 104.615 14.1411L126.887 -20.2937C127.652 -21.4811 126.694 -22.9653 125.157 -22.9653H119.641C118.928 -22.9653 118.27 -22.627 117.91 -22.0748L95.6115 12.36C94.8398 13.5474 95.8045 15.0317 97.3417 15.0317Z" fill="white"/>
<path d="M121.716 14.3133L120.479 11.0598C120.425 10.918 120.34 10.7907 120.23 10.6838C120.097 10.5535 119.927 10.4536 119.734 10.3949L116.087 9.29061C115.009 8.96405 115.009 7.61039 116.087 7.28389L119.734 6.17954C120.086 6.07272 120.359 5.82928 120.479 5.5146L121.716 2.26111C122.083 1.29932 123.6 1.29932 123.966 2.26111L125.204 5.5146C125.323 5.82928 125.596 6.07272 125.949 6.17954L129.595 7.28389C130.673 7.61039 130.673 8.96405 129.595 9.29061L125.949 10.3949C125.596 10.5017 125.323 10.7452 125.204 11.0598L123.966 14.3133C123.6 15.2751 122.083 15.2751 121.716 14.3133Z" fill="white"/>
<path d="M126.341 -10.4086L129.103 -14.6773C129.875 -15.8647 131.792 -15.8647 132.563 -14.6773L150.071 12.36C150.836 13.5474 149.878 15.0317 148.341 15.0317H142.798C142.086 15.0317 141.427 14.6932 141.068 14.1411L126.341 -8.62746C125.982 -9.17956 125.982 -9.85639 126.341 -10.4086Z" fill="white"/>
</g>
<path d="M66.0645 128.371H179.614C197.644 128.371 212.26 142.987 212.26 161.017V274.566C212.26 292.596 197.644 307.212 179.614 307.212H66.0645C48.0351 307.212 33.4191 292.596 33.4189 274.566V161.017C33.4191 142.987 48.0352 128.371 66.0645 128.371Z" stroke="#262626" stroke-width="2.83873"/>
<g opacity="0.5">
<path fill-rule="evenodd" clip-rule="evenodd" d="M122.84 195.527L149.557 241.838H96.1221L122.84 195.527Z" fill="white"/>
</g>
</g>
<defs>
<filter id="filter0_d_712_28002" x="187.625" y="20.0826" width="315.266" height="315.266" filterUnits="userSpaceOnUse" color-interpolation-filters="sRGB">
<feFlood flood-opacity="0" result="BackgroundImageFix"/>
<feColorMatrix in="SourceAlpha" type="matrix" values="0 0 0 0 0 0 0 0 0 0 0 0 0 0 0 0 0 0 127 0" result="hardAlpha"/>
<feOffset dy="13.3587"/>
<feGaussianBlur stdDeviation="33.3968"/>
<feComposite in2="hardAlpha" operator="out"/>
<feColorMatrix type="matrix" values="0 0 0 0 1 0 0 0 0 1 0 0 0 0 1 0 0 0 0.05 0"/>
<feBlend mode="normal" in2="BackgroundImageFix" result="effect1_dropShadow_712_28002"/>
<feBlend mode="normal" in="SourceGraphic" in2="effect1_dropShadow_712_28002" result="shape"/>
</filter>
<linearGradient id="paint0_linear_712_28002" x1="324.552" y1="196.084" x2="429.752" y2="75.8552" gradientUnits="userSpaceOnUse">
<stop offset="0.572133" stop-color="#262626"/>
<stop offset="1" stop-color="white"/>
</linearGradient>
<linearGradient id="paint1_linear_712_28002" x1="564.767" y1="110.172" x2="584.469" y2="118.435" gradientUnits="userSpaceOnUse">
<stop stop-color="#249361"/>
<stop offset="1" stop-color="#3ECF8E"/>
</linearGradient>
<clipPath id="clip0_712_28002">
<rect width="688" height="328.5" fill="white"/>
</clipPath>
<clipPath id="clip1_712_28002">
<rect width="53.4349" height="55.3959" fill="white" transform="translate(538.304 83.2231)"/>
</clipPath>
<clipPath id="clip2_712_28002">
<rect width="53.4349" height="53.4349" fill="white" transform="translate(538.304 305.958)"/>
</clipPath>
</defs>
</svg>
