<svg width="688" height="688" viewBox="0 0 688 688" fill="none" xmlns="http://www.w3.org/2000/svg">
<g clip-path="url(#clip0_748_5442)">
<path d="M273.626 -31.4629H412.824C434.926 -31.4628 452.844 -13.5455 452.844 8.55664V147.755C452.844 169.857 434.926 187.774 412.824 187.774H273.626C251.524 187.774 233.607 169.857 233.606 147.755V8.55664C233.606 -13.5455 251.524 -31.4629 273.626 -31.4629Z" stroke="#262626" stroke-width="3.47996"/>
<g opacity="0.5" clip-path="url(#clip1_748_5442)">
<path d="M366.317 81.7324C366.317 82.3165 366.09 82.8765 365.688 83.2893C365.285 83.7022 364.739 83.9343 364.17 83.9343C363.601 83.9343 363.055 83.7022 362.652 83.2893C362.249 82.8765 362.023 82.3165 362.023 81.7324V62.0629C362.023 61.479 362.249 60.919 362.652 60.5061C363.055 60.0932 363.601 59.8612 364.17 59.8612C364.739 59.8612 365.285 60.0932 365.688 60.5061C366.09 60.919 366.317 61.479 366.317 62.0629V81.7324ZM365.571 95.3612C365.288 95.6522 357.304 102.476 342.668 102.476C328.032 102.476 320.101 95.6887 319.764 95.3974C319.552 95.2138 319.377 94.9889 319.249 94.7358C319.122 94.4823 319.044 94.206 319.021 93.9218C318.998 93.638 319.03 93.3521 319.115 93.0806C319.2 92.8094 319.336 92.5577 319.516 92.3405C319.886 91.9009 320.411 91.6294 320.976 91.5849C321.541 91.5407 322.101 91.7274 322.532 92.1041C322.656 92.1951 329.788 98.1268 342.65 98.1268C355.512 98.1268 362.697 92.1586 362.768 92.1041C363.204 91.7306 363.765 91.5464 364.332 91.5906C364.899 91.6349 365.426 91.9038 365.802 92.3405C366.164 92.7738 366.345 93.336 366.305 93.9049C366.265 94.4737 366.008 95.0038 365.589 95.3793L365.571 95.3612ZM319.001 62.0629C319.034 61.4771 319.29 60.9282 319.716 60.5361C320.141 60.144 320.701 59.9406 321.272 59.9704C321.802 60.0012 322.302 60.2321 322.675 60.6185C323.049 61.0049 323.269 61.5194 323.295 62.0629V81.6962C323.295 82.28 323.069 82.84 322.666 83.2528C322.263 83.666 321.717 83.8978 321.148 83.8978C320.579 83.8978 320.033 83.666 319.63 83.2528C319.228 82.84 319.001 82.28 319.001 81.6962V62.0629ZM329.77 57.6959C329.802 57.1101 330.059 56.5612 330.485 56.1691C330.91 55.777 331.47 55.5736 332.041 55.6034C332.571 55.6342 333.07 55.8651 333.444 56.2515C333.817 56.6379 334.038 57.1524 334.064 57.6959V86.8091C334.064 87.3931 333.837 87.9531 333.435 88.366C333.032 88.7788 332.486 89.0107 331.917 89.0107C331.348 89.0107 330.802 88.7788 330.399 88.366C329.996 87.9531 329.77 87.3931 329.77 86.8091V57.6959ZM340.592 56.6042C340.592 56.0202 340.818 55.4602 341.221 55.0473C341.624 54.6344 342.169 54.4025 342.739 54.4025C343.308 54.4025 343.854 54.6344 344.257 55.0473C344.659 55.4602 344.886 56.0202 344.886 56.6042V88.2648C344.886 88.8486 344.659 89.4086 344.257 89.8217C343.854 90.2346 343.308 90.4664 342.739 90.4664C342.169 90.4664 341.624 90.2346 341.221 89.8217C340.818 89.4086 340.592 88.8486 340.592 88.2648V56.6042ZM351.237 57.6959C351.237 57.112 351.463 56.552 351.866 56.1391C352.268 55.7262 352.814 55.4942 353.383 55.4942C353.953 55.4942 354.499 55.7262 354.901 56.1391C355.304 56.552 355.53 57.112 355.53 57.6959V86.8091C355.53 87.3931 355.304 87.9531 354.901 88.366C354.499 88.7788 353.953 89.0107 353.383 89.0107C352.814 89.0107 352.268 88.7788 351.866 88.366C351.463 87.9531 351.237 87.3931 351.237 86.8091V57.6959ZM366.902 45.6867H318.505C317.45 45.6795 316.405 45.8857 315.428 46.2936C314.451 46.7014 313.562 47.3028 312.813 48.0634C312.063 48.824 311.467 49.7287 311.058 50.726C310.65 51.7232 310.437 52.7932 310.433 53.8748V103.003C310.437 104.085 310.65 105.155 311.058 106.152C311.467 107.149 312.063 108.054 312.813 108.815C313.562 109.575 314.451 110.177 315.428 110.585C316.405 110.992 317.45 111.198 318.505 111.191H366.902C367.955 111.198 368.999 110.993 369.975 110.586C370.95 110.18 371.838 109.58 372.588 108.821C373.337 108.063 373.934 107.16 374.343 106.165C374.753 105.17 374.967 104.102 374.974 103.022V53.8748C374.969 52.7947 374.757 51.7262 374.35 50.7302C373.943 49.7342 373.348 48.8302 372.6 48.0698C371.853 47.3095 370.966 46.7077 369.991 46.2988C369.016 45.8899 367.973 45.6819 366.92 45.6867" fill="white"/>
</g>
<path d="M273.626 240.385H412.824C434.926 240.385 452.844 258.302 452.844 280.404V419.603C452.844 441.705 434.926 459.622 412.824 459.622H273.626C251.524 459.622 233.607 441.705 233.606 419.603V280.404C233.606 258.302 251.524 240.385 273.626 240.385Z" stroke="#262626" stroke-width="3.47996"/>
<rect x="214.253" y="223.089" width="257.926" height="257.926" rx="63.458" stroke="#525252" stroke-width="4.09407"/>
<path d="M393.216 358.915C393.216 361.041 391.558 362.81 389.45 363.075C381.209 364.108 362.2 367.754 360.827 379.474C360.722 380.374 360.822 381.286 360.967 382.181C361.465 385.235 364.102 387.477 367.194 387.477H369.901C372.117 387.477 373.913 389.274 373.913 391.489V395.422C373.913 397.637 372.117 399.434 369.901 399.434H361.232C359.017 399.434 357.284 397.591 356.582 395.49C354.932 390.554 350.271 386.997 344.778 386.996C339.285 386.996 334.624 390.554 332.974 395.49C332.271 397.591 330.539 399.434 328.324 399.434H318.345C316.129 399.434 314.333 397.637 314.333 395.422V391.489C314.333 389.274 316.129 387.477 318.345 387.477H318.974C323.147 387.477 326.53 384.093 326.53 379.918V379.564C326.53 377.505 325.27 375.653 323.366 374.871C306.779 368.056 296.656 362.451 293.951 355.478C293.149 353.412 295.012 351.557 297.228 351.557H389.204C391.42 351.557 393.216 353.353 393.216 355.569V358.915Z" fill="white"/>
<path d="M345.797 304.67C348.012 304.67 349.809 306.467 349.809 308.682V317.062C349.809 318.501 350.702 319.79 352.05 320.295C353.347 320.782 354.81 320.446 355.765 319.442L362.029 312.852C363.549 311.254 366.075 311.182 367.683 312.692L370.799 315.618C372.413 317.133 372.494 319.669 370.981 321.285L364.356 328.358C363.512 329.26 363.317 330.593 363.87 331.699C364.416 332.79 365.577 333.434 366.792 333.319L377.726 332.283C380.08 332.06 382.116 333.912 382.116 336.277V339.172C382.116 341.388 380.32 343.184 378.104 343.184H309.041C306.644 343.184 304.781 341.095 305.055 338.714L305.374 335.938C305.622 333.775 307.55 332.205 309.719 332.4L320.053 333.329C321.266 333.438 322.423 332.793 322.968 331.703C323.522 330.594 323.328 329.259 322.481 328.354L315.982 321.406C314.493 319.814 314.548 317.324 316.105 315.799L319.156 312.812C320.756 311.246 323.328 311.291 324.87 312.914L331.076 319.442C332.031 320.446 333.494 320.782 334.791 320.295C336.139 319.79 337.032 318.501 337.032 317.062V308.682C337.032 306.467 338.828 304.67 341.044 304.67H345.797Z" fill="white"/>
<g filter="url(#filter0_d_748_5442)">
<rect x="234.722" y="240.692" width="218.623" height="218.623" rx="39.7124" stroke="url(#paint0_linear_748_5442)" stroke-width="4.09407"/>
</g>
<path d="M543.837 -96.9688H683.035C705.137 -96.9686 723.055 -79.0513 723.055 -56.9492V82.249C723.055 104.351 705.137 122.268 683.035 122.269H543.837C521.735 122.269 503.817 104.351 503.817 82.249V-56.9492C503.817 -79.0514 521.735 -96.9688 543.837 -96.9688Z" stroke="#262626" stroke-width="3.47996"/>
<g opacity="0.5" clip-path="url(#clip2_748_5442)">
<path fill-rule="evenodd" clip-rule="evenodd" d="M588.871 37.2143L638 26.8915V-11.9146L588.871 -1.78293V37.2143Z" fill="white"/>
</g>
<path d="M543.837 174.879H683.035C705.137 174.879 723.055 192.796 723.055 214.898V354.097C723.055 376.199 705.137 394.116 683.035 394.116H543.837C521.735 394.116 503.817 376.199 503.817 354.097V214.898C503.817 192.796 521.735 174.879 543.837 174.879Z" stroke="#262626" stroke-width="3.47996"/>
<g opacity="0.5" clip-path="url(#clip3_748_5442)">
<path d="M618.975 316.818C617.256 318.982 613.772 317.796 613.73 315.033L613.125 274.617H640.3C645.223 274.617 647.968 280.302 644.907 284.157L618.975 316.818Z" fill="url(#paint1_linear_748_5442)"/>
<path d="M618.975 316.818C617.256 318.982 613.772 317.796 613.73 315.033L613.125 274.617H640.3C645.223 274.617 647.968 280.302 644.907 284.157L618.975 316.818Z" fill="white"/>
<path d="M607.92 251.787C609.639 249.622 613.123 250.808 613.164 253.571L613.43 293.987H586.595C581.672 293.987 578.927 288.302 581.988 284.447L607.92 251.787Z" fill="white"/>
</g>
<path d="M543.837 446.724H683.035C705.137 446.724 723.055 464.641 723.055 486.743V625.941C723.055 648.043 705.137 665.961 683.035 665.961H543.837C521.735 665.961 503.817 648.043 503.817 625.941V486.743C503.817 464.641 521.735 446.724 543.837 446.724Z" stroke="#262626" stroke-width="3.47996"/>
<g opacity="0.5" clip-path="url(#clip4_748_5442)">
<path d="M581.488 563.891C581.343 563.27 582.083 562.878 582.534 563.329L606.451 587.247C606.903 587.698 606.511 588.438 605.89 588.293C593.82 585.461 584.32 575.961 581.488 563.891ZM580.687 554.305C580.675 554.491 580.745 554.672 580.876 554.803L614.978 588.904C615.109 589.036 615.29 589.106 615.476 589.094C617.028 588.997 618.551 588.793 620.037 588.488C620.537 588.385 620.711 587.77 620.35 587.408L582.373 549.431C582.011 549.07 581.396 549.244 581.293 549.744C580.988 551.23 580.783 552.753 580.687 554.305ZM583.444 543.049C583.335 543.294 583.39 543.58 583.58 543.769L626.012 586.201C626.201 586.391 626.487 586.446 626.732 586.337C627.902 585.816 629.036 585.228 630.129 584.579C630.491 584.364 630.546 583.867 630.249 583.57L586.211 539.532C585.914 539.235 585.417 539.29 585.202 539.652C584.553 540.745 583.965 541.879 583.444 543.049ZM588.978 535.43C588.735 535.187 588.72 534.798 588.949 534.543C594.952 527.822 603.685 523.59 613.407 523.59C631.513 523.59 646.191 538.268 646.191 556.374C646.191 566.096 641.959 574.829 635.238 580.832C634.983 581.061 634.594 581.046 634.351 580.803L588.978 535.43Z" fill="white"/>
</g>
<path d="M273.626 512.229H412.824C434.926 512.23 452.844 530.147 452.844 552.249V691.447C452.844 713.549 434.926 731.467 412.824 731.467H273.626C251.524 731.467 233.607 713.549 233.606 691.447V552.249C233.606 530.147 251.524 512.229 273.626 512.229Z" stroke="#262626" stroke-width="3.47996"/>
<g opacity="0.5">
<path fill-rule="evenodd" clip-rule="evenodd" d="M343.225 589.095C325.129 589.095 310.473 603.752 310.473 621.848C310.473 636.341 319.848 648.582 332.867 652.922C334.505 653.208 335.119 652.226 335.119 651.366C335.119 650.588 335.078 648.009 335.078 645.266C326.849 646.781 324.72 643.26 324.065 641.417C323.696 640.476 322.1 637.569 320.708 636.791C319.561 636.177 317.924 634.662 320.667 634.621C323.246 634.58 325.088 636.996 325.703 637.978C328.65 642.932 333.358 641.54 335.242 640.68C335.528 638.552 336.388 637.119 337.33 636.3C330.042 635.481 322.427 632.656 322.427 620.128C322.427 616.566 323.696 613.619 325.784 611.326C325.457 610.507 324.311 607.15 326.112 602.647C326.112 602.647 328.855 601.787 335.119 606.004C337.739 605.267 340.523 604.898 343.307 604.898C346.091 604.898 348.875 605.267 351.495 606.004C357.759 601.746 360.502 602.647 360.502 602.647C362.304 607.15 361.157 610.507 360.83 611.326C362.918 613.619 364.187 616.525 364.187 620.128C364.187 632.697 356.531 635.481 349.243 636.3C350.431 637.323 351.454 639.288 351.454 642.359C351.454 646.74 351.413 650.261 351.413 651.366C351.413 652.226 352.027 653.249 353.665 652.922C366.602 648.582 375.978 636.3 375.978 621.848C375.978 603.752 361.321 589.095 343.225 589.095Z" fill="white"/>
</g>
<path d="M1.77441 34.042H140.973C163.075 34.0421 180.992 51.9594 180.992 74.0615V213.26C180.992 235.362 163.075 253.279 140.973 253.279H1.77441C-20.3277 253.279 -38.245 235.362 -38.2451 213.26V74.0615C-38.2451 51.9594 -20.3278 34.042 1.77441 34.042Z" stroke="#262626" stroke-width="3.47996"/>
<g opacity="0.5">
<path d="M39.9821 169.754H46.8064C47.6829 169.754 48.4941 169.289 48.9365 168.53L76.3561 121.233C77.2985 119.602 76.1184 117.563 74.2264 117.563H67.4349C66.558 117.563 65.7472 118.028 65.3048 118.786L37.852 166.084C36.902 167.715 38.0896 169.754 39.9821 169.754Z" fill="white"/>
<path d="M69.9906 168.767L68.4669 164.298C68.4005 164.103 68.2957 163.928 68.1609 163.782C67.9969 163.603 67.7881 163.465 67.5493 163.385L63.0599 161.868C61.733 161.419 61.733 159.56 63.0599 159.112L67.5493 157.595C67.9837 157.448 68.3193 157.114 68.4669 156.681L69.9906 152.213C70.4414 150.892 72.3091 150.892 72.7599 152.213L74.2836 156.681C74.4312 157.114 74.7668 157.448 75.2012 157.595L79.6906 159.112C81.0174 159.56 81.0174 161.419 79.6906 161.868L75.2012 163.385C74.7668 163.531 74.4312 163.866 74.2836 164.298L72.7599 168.767C72.3091 170.088 70.4414 170.088 69.9906 168.767Z" fill="white"/>
<path d="M75.6844 134.81L79.0846 128.947C80.0346 127.316 82.3943 127.316 83.3443 128.947L104.898 166.084C105.84 167.715 104.661 169.754 102.768 169.754H95.9445C95.0676 169.754 94.2568 169.289 93.8144 168.53L75.6844 137.257C75.2424 136.498 75.2424 135.569 75.6844 134.81Z" fill="white"/>
</g>
<path d="M1.77441 305.89H140.973C163.075 305.89 180.992 323.807 180.992 345.909V485.107C180.992 507.209 163.075 525.127 140.973 525.127H1.77441C-20.3277 525.127 -38.245 507.209 -38.2451 485.107V345.909C-38.2451 323.807 -20.3278 305.89 1.77441 305.89Z" stroke="#262626" stroke-width="3.47996"/>
<g opacity="0.5">
<path fill-rule="evenodd" clip-rule="evenodd" d="M71.3736 388.214L104.126 444.985H38.6211L71.3736 388.214Z" fill="white"/>
</g>
<path d="M1.77441 577.734H140.973C163.075 577.734 180.992 595.652 180.992 617.754V756.952C180.992 779.054 163.075 796.972 140.973 796.972H1.77441C-20.3277 796.972 -38.245 779.054 -38.2451 756.952V617.754C-38.2451 595.652 -20.3278 577.734 1.77441 577.734Z" stroke="#262626" stroke-width="3.47996"/>
<g opacity="0.5">
<path d="M65.2456 658.747H74.2365C76.0001 658.747 77.4287 660.176 77.4287 661.939V667.243C77.4287 669.007 76.0001 670.436 74.2365 670.436H66.3947C65.5473 670.436 64.7354 670.773 64.1364 671.372L50.6801 684.829C50.0811 685.428 49.2692 685.765 48.4218 685.765H41.9531C40.2228 685.765 38.8053 684.385 38.761 682.655L38.6212 677.239C38.5746 675.445 40.0165 673.965 41.8134 673.965H47.3814C48.2288 673.965 49.0407 673.628 49.6397 673.029L62.9829 659.685C63.5819 659.086 64.3938 658.749 65.2412 658.749L65.2456 658.747Z" fill="white"/>
<path d="M91.9316 665.581H100.922C102.686 665.581 104.115 667.01 104.115 668.773V674.077C104.115 675.841 102.686 677.27 100.922 677.27H93.0807C92.2333 677.27 91.4213 677.607 90.8224 678.206L77.366 691.663C76.7671 692.262 75.9552 692.599 75.1078 692.599H67.2482C66.4252 692.599 65.6333 692.916 65.0388 693.486L49.9319 707.963C49.3374 708.533 48.5455 708.851 47.7225 708.851H42.2166C40.453 708.851 39.0244 707.42 39.0244 705.658V700.208C39.0244 698.444 40.453 697.015 42.2166 697.015H47.6826C48.53 697.015 49.3419 696.678 49.9408 696.079L64.2867 681.733C64.8857 681.134 65.6976 680.797 66.545 680.797H74.0674C74.9148 680.797 75.7267 680.46 76.3256 679.861L89.6689 666.517C90.2678 665.918 91.0797 665.581 91.9271 665.581H91.9316Z" fill="white"/>
</g>
</g>
<defs>
<filter id="filter0_d_748_5442" x="150.793" y="173.139" width="386.48" height="386.48" filterUnits="userSpaceOnUse" color-interpolation-filters="sRGB">
<feFlood flood-opacity="0" result="BackgroundImageFix"/>
<feColorMatrix in="SourceAlpha" type="matrix" values="0 0 0 0 0 0 0 0 0 0 0 0 0 0 0 0 0 0 127 0" result="hardAlpha"/>
<feOffset dy="16.3763"/>
<feGaussianBlur stdDeviation="40.9407"/>
<feComposite in2="hardAlpha" operator="out"/>
<feColorMatrix type="matrix" values="0 0 0 0 1 0 0 0 0 1 0 0 0 0 1 0 0 0 0.05 0"/>
<feBlend mode="normal" in2="BackgroundImageFix" result="effect1_dropShadow_748_5442"/>
<feBlend mode="normal" in="SourceGraphic" in2="effect1_dropShadow_748_5442" result="shape"/>
</filter>
<linearGradient id="paint0_linear_748_5442" x1="318.65" y1="388.897" x2="447.613" y2="241.51" gradientUnits="userSpaceOnUse">
<stop offset="0.572133" stop-color="#262626"/>
<stop offset="1" stop-color="white"/>
</linearGradient>
<linearGradient id="paint1_linear_748_5442" x1="613.125" y1="283.578" x2="637.278" y2="293.708" gradientUnits="userSpaceOnUse">
<stop stop-color="#249361"/>
<stop offset="1" stop-color="#3ECF8E"/>
</linearGradient>
<clipPath id="clip0_748_5442">
<rect width="688" height="688" fill="white"/>
</clipPath>
<clipPath id="clip1_748_5442">
<rect width="66.0797" height="64.9404" fill="white" transform="translate(310.185 45.6855)"/>
</clipPath>
<clipPath id="clip2_748_5442">
<rect width="49.1288" height="49.1288" fill="white" transform="translate(588.871 -11.9146)"/>
</clipPath>
<clipPath id="clip3_748_5442">
<rect width="65.5051" height="67.9089" fill="white" transform="translate(580.684 250.543)"/>
</clipPath>
<clipPath id="clip4_748_5442">
<rect width="65.5051" height="65.5051" fill="white" transform="translate(580.684 523.589)"/>
</clipPath>
</defs>
</svg>
