<svg width="671" height="329" viewBox="0 0 671 329" fill="none" xmlns="http://www.w3.org/2000/svg">
<g clip-path="url(#clip0_688_6210)">
<path d="M299.016 -20.731H368.614C379.665 -20.731 388.624 -11.7723 388.624 -0.721191V68.8774C388.624 79.9285 379.665 88.8872 368.614 88.8872H299.016C287.965 88.8872 279.006 79.9285 279.006 68.8774V-0.721191C279.006 -11.7723 287.965 -20.731 299.016 -20.731Z" stroke="#262626" stroke-width="1.73998"/>
<g opacity="0.5" clip-path="url(#clip1_688_6210)">
<path d="M345.361 35.8667C345.361 36.1587 345.248 36.4387 345.046 36.6451C344.845 36.8516 344.572 36.9676 344.288 36.9676C344.003 36.9676 343.73 36.8516 343.529 36.6451C343.327 36.4387 343.214 36.1587 343.214 35.8667V26.0319C343.214 25.74 343.327 25.46 343.529 25.2535C343.73 25.0471 344.003 24.9311 344.288 24.9311C344.572 24.9311 344.845 25.0471 345.046 25.2535C345.248 25.46 345.361 25.74 345.361 26.0319V35.8667ZM344.988 42.6811C344.846 42.8266 340.855 46.2383 333.537 46.2383C326.218 46.2383 322.253 42.8449 322.085 42.6992C321.979 42.6074 321.891 42.4949 321.827 42.3684C321.764 42.2417 321.725 42.1035 321.713 41.9614C321.702 41.8195 321.718 41.6765 321.76 41.5408C321.803 41.4052 321.871 41.2793 321.961 41.1707C322.146 40.951 322.408 40.8152 322.691 40.7929C322.973 40.7708 323.253 40.8642 323.469 41.0525C323.531 41.0981 327.097 44.0639 333.528 44.0639C339.959 44.0639 343.551 41.0798 343.587 41.0525C343.805 40.8658 344.085 40.7737 344.369 40.7958C344.652 40.8179 344.916 40.9524 345.104 41.1707C345.285 41.3874 345.375 41.6685 345.355 41.9529C345.335 42.2374 345.206 42.5024 344.997 42.6901L344.988 42.6811ZM321.703 26.0319C321.719 25.7391 321.848 25.4646 322.061 25.2685C322.273 25.0725 322.553 24.9708 322.839 24.9857C323.104 25.0011 323.353 25.1165 323.54 25.3097C323.727 25.5029 323.837 25.7602 323.85 26.0319V35.8486C323.85 36.1405 323.737 36.4205 323.536 36.6269C323.334 36.8335 323.061 36.9494 322.777 36.9494C322.492 36.9494 322.219 36.8335 322.018 36.6269C321.816 36.4205 321.703 36.1405 321.703 35.8486V26.0319ZM327.088 23.8484C327.104 23.5555 327.232 23.2811 327.445 23.085C327.658 22.889 327.938 22.7873 328.223 22.8022C328.488 22.8176 328.738 22.933 328.925 23.1262C329.111 23.3194 329.222 23.5767 329.234 23.8484V38.405C329.234 38.6971 329.121 38.977 328.92 39.1835C328.719 39.3899 328.446 39.5058 328.161 39.5058C327.876 39.5058 327.603 39.3899 327.402 39.1835C327.201 38.977 327.088 38.6971 327.088 38.405V23.8484ZM332.499 23.3026C332.499 23.0106 332.612 22.7306 332.813 22.5242C333.014 22.3177 333.287 22.2017 333.572 22.2017C333.857 22.2017 334.13 22.3177 334.331 22.5242C334.532 22.7306 334.645 23.0106 334.645 23.3026V39.1329C334.645 39.4248 334.532 39.7048 334.331 39.9113C334.13 40.1178 333.857 40.2337 333.572 40.2337C333.287 40.2337 333.014 40.1178 332.813 39.9113C332.612 39.7048 332.499 39.4248 332.499 39.1329V23.3026ZM337.821 23.8484C337.821 23.5565 337.934 23.2765 338.135 23.07C338.337 22.8636 338.61 22.7476 338.894 22.7476C339.179 22.7476 339.452 22.8636 339.653 23.07C339.855 23.2765 339.968 23.5565 339.968 23.8484V38.405C339.968 38.6971 339.855 38.977 339.653 39.1835C339.452 39.3899 339.179 39.5058 338.894 39.5058C338.61 39.5058 338.337 39.3899 338.135 39.1835C337.934 38.977 337.821 38.6971 337.821 38.405V23.8484ZM345.654 17.8438H321.455C320.928 17.8402 320.405 17.9434 319.917 18.1473C319.428 18.3512 318.984 18.6519 318.609 19.0322C318.234 19.4125 317.936 19.8649 317.732 20.3635C317.528 20.8621 317.421 21.3971 317.419 21.9379V46.5022C317.421 47.0429 317.528 47.578 317.732 48.0766C317.936 48.5751 318.234 49.0276 318.609 49.4079C318.984 49.7881 319.428 50.0889 319.917 50.2928C320.405 50.4967 320.928 50.5997 321.455 50.5961H345.654C346.18 50.5997 346.702 50.497 347.19 50.2936C347.678 50.0903 348.122 49.7904 348.497 49.411C348.871 49.0318 349.17 48.5804 349.374 48.0828C349.579 47.5854 349.686 47.0513 349.69 46.5113V21.9379C349.687 21.3979 349.581 20.8636 349.378 20.3656C349.174 19.8676 348.877 19.4156 348.503 19.0354C348.129 18.6552 347.685 18.3543 347.198 18.1499C346.711 17.9454 346.189 17.8414 345.662 17.8438" fill="white"/>
</g>
<path d="M299.016 115.193H368.614C379.665 115.193 388.624 124.152 388.624 135.203V204.801C388.624 215.852 379.665 224.811 368.614 224.811H299.016C287.965 224.811 279.006 215.852 279.006 204.801V135.203C279.006 124.152 287.965 115.193 299.016 115.193Z" stroke="#262626" stroke-width="1.73998"/>
<rect x="269.329" y="106.545" width="128.963" height="128.963" rx="31.729" stroke="#525252" stroke-width="2.04703"/>
<path d="M358.811 174.458C358.811 175.521 357.982 176.406 356.927 176.538C352.807 177.055 343.302 178.878 342.616 184.738C342.563 185.188 342.613 185.644 342.686 186.091C342.935 187.618 344.253 188.739 345.8 188.739H347.153C348.261 188.739 349.159 189.638 349.159 190.745V192.712C349.159 193.819 348.261 194.718 347.153 194.718H342.819C341.711 194.718 340.845 193.796 340.494 192.746C339.669 190.278 337.338 188.499 334.592 188.499C331.845 188.499 329.514 190.278 328.69 192.746C328.338 193.796 327.472 194.718 326.364 194.718H321.375C320.267 194.718 319.369 193.819 319.369 192.712V190.745C319.369 189.638 320.267 188.739 321.375 188.739H321.689C323.776 188.739 325.468 187.047 325.468 184.96V184.783C325.468 183.753 324.838 182.827 323.886 182.436C315.592 179.029 310.531 176.226 309.178 172.74C308.777 171.707 309.709 170.779 310.816 170.779H356.805C357.913 170.779 358.811 171.677 358.811 172.785V174.458Z" fill="white"/>
<path d="M335.102 147.336C336.209 147.336 337.106 148.234 337.106 149.342V153.532C337.107 154.252 337.554 154.896 338.228 155.148C338.876 155.392 339.608 155.224 340.085 154.722L343.217 151.427C343.977 150.628 345.24 150.592 346.044 151.347L347.602 152.81C348.408 153.567 348.45 154.835 347.693 155.643L344.381 159.18C343.958 159.631 343.861 160.298 344.138 160.851C344.411 161.396 344.991 161.718 345.599 161.66L351.065 161.143C352.243 161.031 353.26 161.956 353.261 163.139V164.587C353.261 165.695 352.363 166.593 351.255 166.593H316.723C315.524 166.593 314.594 165.549 314.73 164.358L314.89 162.97C315.014 161.888 315.977 161.104 317.062 161.201L322.229 161.665C322.835 161.72 323.414 161.397 323.687 160.853C323.964 160.298 323.867 159.63 323.443 159.178L320.193 155.704C319.449 154.908 319.476 153.663 320.255 152.9L321.78 151.406C322.58 150.623 323.866 150.647 324.638 151.458L327.74 154.722C328.218 155.224 328.95 155.392 329.599 155.148C330.272 154.896 330.719 154.252 330.719 153.532V149.342C330.719 148.234 331.617 147.336 332.725 147.336H335.102Z" fill="white"/>
<g filter="url(#filter0_d_688_6210)">
<rect x="279.564" y="115.346" width="109.312" height="109.312" rx="19.8562" stroke="url(#paint0_linear_688_6210)" stroke-width="2.04703"/>
</g>
<path d="M434.121 -53.4839H503.72C514.771 -53.4839 523.729 -44.5252 523.729 -33.4741V36.1245C523.729 47.1756 514.771 56.1343 503.72 56.1343H434.121C423.07 56.1343 414.111 47.1756 414.111 36.1245V-33.4741C414.111 -44.5252 423.07 -53.4839 434.121 -53.4839Z" stroke="#262626" stroke-width="1.73998"/>
<g opacity="0.5" clip-path="url(#clip2_688_6210)">
<path fill-rule="evenodd" clip-rule="evenodd" d="M456.639 13.6074L481.203 8.44598V-10.957L456.639 -5.89122V13.6074Z" fill="white"/>
</g>
<path d="M434.121 82.4399H503.72C514.771 82.4399 523.729 91.3986 523.729 102.45V172.048C523.729 183.099 514.771 192.058 503.72 192.058H434.121C423.07 192.058 414.111 183.099 414.111 172.048V102.45C414.111 91.3986 423.07 82.4399 434.121 82.4399Z" stroke="#262626" stroke-width="1.73998"/>
<g opacity="0.5" clip-path="url(#clip3_688_6210)">
<path d="M471.689 153.409C470.83 154.491 469.088 153.899 469.067 152.517L468.765 132.309H482.352C484.813 132.309 486.186 135.152 484.656 137.079L471.689 153.409Z" fill="url(#paint1_linear_688_6210)"/>
<path d="M471.689 153.409C470.83 154.491 469.088 153.899 469.067 152.517L468.765 132.309H482.352C484.813 132.309 486.186 135.152 484.656 137.079L471.689 153.409Z" fill="white"/>
<path d="M466.162 120.894C467.021 119.812 468.764 120.405 468.784 121.786L468.917 141.994H455.499C453.038 141.994 451.666 139.151 453.196 137.224L466.162 120.894Z" fill="white"/>
</g>
<path d="M434.121 218.362H503.72C514.771 218.362 523.729 227.321 523.729 238.372V307.971C523.729 319.022 514.771 327.98 503.72 327.98H434.121C423.07 327.98 414.111 319.022 414.111 307.971V238.372C414.111 227.321 423.07 218.362 434.121 218.362Z" stroke="#262626" stroke-width="1.73998"/>
<g opacity="0.5" clip-path="url(#clip4_688_6210)">
<path d="M452.946 276.946C452.873 276.636 453.243 276.44 453.469 276.665L465.428 288.624C465.654 288.85 465.458 289.22 465.147 289.147C459.112 287.731 454.362 282.981 452.946 276.946ZM452.546 272.153C452.54 272.246 452.575 272.337 452.64 272.402L469.691 289.453C469.757 289.519 469.847 289.554 469.94 289.548C470.716 289.499 471.477 289.397 472.22 289.245C472.471 289.193 472.558 288.885 472.377 288.705L453.389 269.716C453.208 269.536 452.9 269.623 452.849 269.873C452.696 270.616 452.594 271.377 452.546 272.153ZM453.924 266.525C453.87 266.648 453.897 266.791 453.992 266.885L475.208 288.101C475.303 288.196 475.446 288.224 475.568 288.169C476.153 287.909 476.72 287.615 477.267 287.29C477.447 287.183 477.475 286.934 477.327 286.786L455.308 264.767C455.159 264.618 454.911 264.646 454.803 264.827C454.479 265.373 454.185 265.94 453.924 266.525ZM456.691 262.716C456.57 262.594 456.562 262.4 456.676 262.272C459.678 258.911 464.045 256.796 468.905 256.796C477.959 256.796 485.297 264.135 485.297 273.188C485.297 278.049 483.182 282.415 479.821 285.417C479.693 285.531 479.499 285.524 479.378 285.402L456.691 262.716Z" fill="white"/>
</g>
<path d="M299.016 251.115H368.614C379.665 251.115 388.624 260.074 388.624 271.125V340.724C388.624 351.775 379.665 360.733 368.614 360.733H299.016C287.965 360.733 279.006 351.775 279.006 340.724V271.125C279.006 260.074 287.965 251.115 299.016 251.115Z" stroke="#262626" stroke-width="1.73998"/>
<g opacity="0.5">
<path fill-rule="evenodd" clip-rule="evenodd" d="M333.815 289.548C324.767 289.548 317.438 296.877 317.438 305.925C317.438 313.171 322.126 319.292 328.636 321.462C329.455 321.605 329.762 321.114 329.762 320.684C329.762 320.295 329.741 319.005 329.741 317.634C325.627 318.391 324.562 316.631 324.235 315.709C324.05 315.239 323.252 313.785 322.556 313.396C321.983 313.089 321.164 312.332 322.536 312.311C323.825 312.291 324.746 313.499 325.053 313.99C326.527 316.467 328.881 315.771 329.823 315.341C329.966 314.277 330.396 313.56 330.867 313.151C327.223 312.741 323.416 311.329 323.416 305.065C323.416 303.284 324.05 301.81 325.094 300.664C324.931 300.254 324.357 298.576 325.258 296.324C325.258 296.324 326.63 295.894 329.762 298.003C331.072 297.634 332.464 297.45 333.856 297.45C335.248 297.45 336.64 297.634 337.95 298.003C341.082 295.874 342.453 296.324 342.453 296.324C343.354 298.576 342.781 300.254 342.617 300.664C343.661 301.81 344.296 303.263 344.296 305.065C344.296 311.349 340.468 312.741 336.824 313.151C337.418 313.662 337.929 314.645 337.929 316.18C337.929 318.371 337.909 320.131 337.909 320.684C337.909 321.114 338.216 321.625 339.035 321.462C345.503 319.292 350.191 313.151 350.191 305.925C350.191 296.877 342.863 289.548 333.815 289.548Z" fill="white"/>
</g>
<path d="M163.09 12.0215H232.688C243.74 12.0215 252.698 20.9802 252.698 32.0312V101.63C252.698 112.681 243.74 121.64 232.688 121.64H163.09C152.039 121.64 143.08 112.681 143.08 101.63V32.0312C143.08 20.9802 152.039 12.0215 163.09 12.0215Z" stroke="#262626" stroke-width="1.73998"/>
<g style="mix-blend-mode:luminosity" opacity="0.5">
<path d="M183.483 51.8671L201.606 50.5285C203.833 50.3376 204.404 50.4663 205.804 51.4839L211.589 55.5593C212.543 56.2602 212.861 56.4512 212.861 57.2143V79.5656C212.861 80.9664 212.352 81.7951 210.572 81.9215L189.526 83.1962C188.19 83.2594 187.554 83.0685 186.854 82.1766L182.594 76.6369C181.829 75.6173 181.513 74.8542 181.513 73.962V54.0943C181.513 52.9489 182.021 51.9939 183.483 51.8671Z" fill="white"/>
<path fill-rule="evenodd" clip-rule="evenodd" d="M201.606 50.5288L183.483 51.8674C182.021 51.9939 181.513 52.9493 181.513 54.0943V73.962C181.513 74.8538 181.829 75.617 182.594 76.6369L186.854 82.1763C187.554 83.0682 188.19 83.2594 189.526 83.1959L210.572 81.9218C212.352 81.7951 212.861 80.9664 212.861 79.5659V57.2146C212.861 56.4908 212.576 56.2822 211.734 55.6644L205.804 51.4839C204.405 50.4663 203.833 50.3376 201.606 50.5285V50.5288ZM190.002 56.8488C188.284 56.9644 187.894 56.9906 186.918 56.197L184.437 54.2233C184.184 53.9679 184.311 53.6492 184.946 53.5856L202.369 52.3125C203.832 52.1848 204.593 52.6948 205.166 53.1402L208.154 55.3051C208.281 55.3697 208.599 55.7506 208.217 55.7506L190.225 56.8337L190.002 56.8488ZM187.999 79.375V60.4005C187.999 59.5718 188.253 59.1896 189.015 59.1254L209.68 57.9155C210.381 57.8523 210.698 58.2977 210.698 59.1251V77.9732C210.698 78.8018 210.57 79.5027 209.426 79.5659L189.651 80.7123C188.507 80.7755 187.999 80.3946 187.999 79.375H187.999ZM207.519 61.4178C207.646 61.9909 207.519 62.5641 206.946 62.6296L205.993 62.8186V76.8278C205.165 77.2733 204.403 77.5277 203.767 77.5277C202.749 77.5277 202.495 77.2091 201.733 76.2547L195.5 66.4485V75.936L197.472 76.3824C197.472 76.3824 197.472 77.5287 195.881 77.5287L191.495 77.7832C191.368 77.5277 191.495 76.8914 191.94 76.7646L193.085 76.4469V63.9027L191.496 63.774C191.368 63.2008 191.686 62.3731 192.577 62.3089L197.282 61.9922L203.767 71.9251V63.1376L202.114 62.9476C201.986 62.2457 202.495 61.7358 203.13 61.6735L207.519 61.4178Z" fill="black"/>
</g>
<path d="M163.09 147.945H232.688C243.74 147.945 252.698 156.904 252.698 167.955V237.554C252.698 248.605 243.74 257.563 232.688 257.563H163.09C152.039 257.563 143.08 248.605 143.08 237.554V167.955C143.08 156.904 152.039 147.945 163.09 147.945Z" stroke="#262626" stroke-width="1.73998"/>
<g opacity="0.5">
<path d="M208.174 203.549H212.67C213.551 203.549 214.266 204.264 214.266 205.146V207.798C214.266 208.679 213.551 209.394 212.67 209.394H208.749C208.325 209.394 207.919 209.562 207.619 209.862L200.891 216.589C200.592 216.889 200.186 217.057 199.762 217.057H196.528C195.663 217.057 194.954 216.367 194.932 215.502L194.862 212.795C194.839 211.897 195.56 211.156 196.458 211.156H199.242C199.666 211.156 200.072 210.988 200.371 210.688L207.043 204.016C207.342 203.717 207.748 203.548 208.172 203.548L208.174 203.549Z" fill="white"/>
<path d="M194.825 188.452H199.321C200.203 188.452 200.917 189.166 200.917 190.048V192.7C200.917 193.582 200.203 194.296 199.321 194.296H195.4C194.976 194.296 194.57 194.465 194.271 194.764L187.543 201.492C187.243 201.792 186.837 201.96 186.414 201.96H183.179C182.314 201.96 181.605 201.271 181.583 200.405L181.513 197.698C181.49 196.801 182.211 196.061 183.109 196.061H185.893C186.317 196.061 186.723 195.892 187.022 195.593L193.694 188.921C193.994 188.621 194.4 188.453 194.823 188.453L194.825 188.452Z" fill="white"/>
<path d="M208.168 191.869H212.664C213.546 191.869 214.26 192.583 214.26 193.465V196.117C214.26 196.999 213.546 197.713 212.664 197.713H208.743C208.319 197.713 207.913 197.882 207.614 198.181L200.886 204.909C200.586 205.209 200.18 205.377 199.757 205.377H195.827C195.415 205.377 195.019 205.536 194.722 205.821L187.169 213.06C186.871 213.345 186.475 213.503 186.064 213.503H183.311C182.429 213.503 181.715 212.788 181.715 211.907V209.182C181.715 208.3 182.429 207.586 183.311 207.586H186.044C186.468 207.586 186.874 207.417 187.173 207.118L194.346 199.945C194.645 199.645 195.051 199.477 195.475 199.477H199.236C199.66 199.477 200.066 199.308 200.365 199.009L207.037 192.337C207.337 192.037 207.742 191.869 208.166 191.869H208.168Z" fill="white"/>
</g>
<path d="M163.09 283.868H232.688C243.74 283.868 252.698 292.826 252.698 303.877V373.476C252.698 384.527 243.74 393.486 232.688 393.486H163.09C152.039 393.486 143.08 384.527 143.08 373.476V303.877C143.08 292.826 152.039 283.868 163.09 283.868Z" stroke="#262626" stroke-width="1.73998"/>
<g opacity="0.5">
<path fill-rule="evenodd" clip-rule="evenodd" d="M197.889 325.03L214.265 353.416H181.513L197.889 325.03Z" fill="white"/>
</g>
</g>
<defs>
<filter id="filter0_d_688_6210" x="237.599" y="81.5702" width="193.24" height="193.24" filterUnits="userSpaceOnUse" color-interpolation-filters="sRGB">
<feFlood flood-opacity="0" result="BackgroundImageFix"/>
<feColorMatrix in="SourceAlpha" type="matrix" values="0 0 0 0 0 0 0 0 0 0 0 0 0 0 0 0 0 0 127 0" result="hardAlpha"/>
<feOffset dy="8.18814"/>
<feGaussianBlur stdDeviation="20.4703"/>
<feComposite in2="hardAlpha" operator="out"/>
<feColorMatrix type="matrix" values="0 0 0 0 1 0 0 0 0 1 0 0 0 0 1 0 0 0 0.05 0"/>
<feBlend mode="normal" in2="BackgroundImageFix" result="effect1_dropShadow_688_6210"/>
<feBlend mode="normal" in="SourceGraphic" in2="effect1_dropShadow_688_6210" result="shape"/>
</filter>
<linearGradient id="paint0_linear_688_6210" x1="321.528" y1="189.449" x2="386.009" y2="115.756" gradientUnits="userSpaceOnUse">
<stop offset="0.572133" stop-color="#262626"/>
<stop offset="1" stop-color="#00FFAA"/>
</linearGradient>
<linearGradient id="paint1_linear_688_6210" x1="468.765" y1="136.79" x2="480.841" y2="141.854" gradientUnits="userSpaceOnUse">
<stop stop-color="#249361"/>
<stop offset="1" stop-color="#3ECF8E"/>
</linearGradient>
<clipPath id="clip0_688_6210">
<rect width="564" height="323" fill="white" transform="translate(52 6)"/>
</clipPath>
<clipPath id="clip1_688_6210">
<rect width="33.0398" height="32.4702" fill="white" transform="translate(317.295 17.8433)"/>
</clipPath>
<clipPath id="clip2_688_6210">
<rect width="24.5644" height="24.5644" fill="white" transform="translate(456.639 -10.957)"/>
</clipPath>
<clipPath id="clip3_688_6210">
<rect width="32.7525" height="33.9545" fill="white" transform="translate(452.544 120.272)"/>
</clipPath>
<clipPath id="clip4_688_6210">
<rect width="32.7525" height="32.7525" fill="white" transform="translate(452.544 256.795)"/>
</clipPath>
</defs>
</svg>
